<svg width="182" height="13" viewBox="0 0 182 13" fill="none" xmlns="http://www.w3.org/2000/svg">
<path d="M6.59996 12.84C2.80496 12.84 -3.90299e-05 10.125 -3.90299e-05 6.42C-3.90299e-05 2.715 2.80496 1.66893e-06 6.59996 1.66893e-06C10.395 1.66893e-06 13.2 2.715 13.2 6.42C13.2 10.125 10.395 12.84 6.59996 12.84ZM6.59996 10.38C8.81996 10.38 10.47 8.715 10.47 6.42C10.47 4.11 8.81996 2.46 6.59996 2.46C4.37996 2.46 2.72996 4.11 2.72996 6.42C2.72996 8.715 4.37996 10.38 6.59996 10.38ZM16.6222 12.54V0.315002H21.9322C24.6472 0.315002 26.1772 1.725 26.1772 3.96C26.1772 4.83 25.5922 5.82 24.7522 6.135C25.9222 6.51 26.7472 7.65 26.7472 8.835C26.7472 11.1 25.1272 12.54 22.3822 12.54H16.6222ZM19.3522 5.265H21.8122C22.8472 5.265 23.4472 4.815 23.4472 3.96C23.4472 3.105 22.8472 2.64 21.8122 2.64H19.3522V5.265ZM19.3522 10.215H22.2622C23.3422 10.215 24.0172 9.735 24.0172 8.835C24.0172 7.935 23.3422 7.455 22.2622 7.455H19.3522V10.215ZM29.2556 8.475H31.9856C31.9856 9.375 32.7056 10.38 34.0556 10.38C35.4056 10.38 36.2156 9.435 36.2156 8.025V0.315002H38.9456V8.025C38.9456 10.95 36.9956 12.84 34.0556 12.84C31.1156 12.84 29.2856 10.905 29.2556 8.475ZM42.7222 12.54V0.315002H51.8122V2.685H45.4522V5.175H51.2872V7.545H45.4522V10.17H51.9472V12.54H42.7222ZM61.406 12.84C57.641 12.84 54.866 10.125 54.866 6.42C54.866 2.715 57.641 1.66893e-06 61.406 1.66893e-06C64.766 1.66893e-06 67.016 2.025 67.511 4.605H64.751C64.466 3.435 63.221 2.505 61.466 2.505C59.246 2.505 57.596 4.14 57.596 6.42C57.596 8.685 59.246 10.335 61.466 10.335C63.221 10.335 64.661 9.18 64.871 8.07H67.631C67.256 10.53 64.796 12.84 61.406 12.84ZM80.4382 0.315002V2.73H76.4632V12.54H73.7332V2.73H69.7582V0.315002H80.4382ZM100.147 12.54H96.9823L94.6123 8.685H92.4373V12.54H89.7073V0.315002H94.6273C97.7323 0.315002 99.5473 1.965 99.5473 4.5C99.5473 6.18 98.7523 7.47 97.3123 8.145L100.147 12.54ZM92.4373 2.73V6.27H94.5073C95.9473 6.27 96.8173 5.655 96.8173 4.5C96.8173 3.345 95.9473 2.73 94.5073 2.73H92.4373ZM109.14 12.84C105.345 12.84 102.54 10.125 102.54 6.42C102.54 2.715 105.345 1.66893e-06 109.14 1.66893e-06C112.935 1.66893e-06 115.74 2.715 115.74 6.42C115.74 10.125 112.935 12.84 109.14 12.84ZM109.14 10.38C111.36 10.38 113.01 8.715 113.01 6.42C113.01 4.11 111.36 2.46 109.14 2.46C106.92 2.46 105.27 4.11 105.27 6.42C105.27 8.715 106.92 10.38 109.14 10.38ZM128.595 0.315002V2.73H124.62V12.54H121.89V2.73H117.915V0.315002H128.595ZM138.428 12.54L137.573 10.17H132.833L131.978 12.54H129.158L133.898 0.315002H136.733L141.473 12.54H138.428ZM133.673 7.8H136.733L135.203 3.54L133.673 7.8ZM152.718 0.315002V2.73H148.743V12.54H146.013V2.73H142.038V0.315002H152.718ZM161.486 12.84C157.691 12.84 154.886 10.125 154.886 6.42C154.886 2.715 157.691 1.66893e-06 161.486 1.66893e-06C165.281 1.66893e-06 168.086 2.715 168.086 6.42C168.086 10.125 165.281 12.84 161.486 12.84ZM161.486 10.38C163.706 10.38 165.356 8.715 165.356 6.42C165.356 4.11 163.706 2.46 161.486 2.46C159.266 2.46 157.616 4.11 157.616 6.42C157.616 8.715 159.266 10.38 161.486 10.38ZM181.948 12.54H178.783L176.413 8.685H174.238V12.54H171.508V0.315002H176.428C179.533 0.315002 181.348 1.965 181.348 4.5C181.348 6.18 180.553 7.47 179.113 8.145L181.948 12.54ZM174.238 2.73V6.27H176.308C177.748 6.27 178.618 5.655 178.618 4.5C178.618 3.345 177.748 2.73 176.308 2.73H174.238Z" fill="url(#paint0_linear_5_56)"/>
<defs>
<linearGradient id="paint0_linear_5_56" x1="-0.540039" y1="6.69" x2="182.46" y2="6.69" gradientUnits="userSpaceOnUse">
<stop stop-color="#987CFF"/>
<stop offset="1" stop-color="#C1A7FE"/>
</linearGradient>
</defs>
</svg>
